<?xml version="1.0" encoding="UTF-8" standalone="no"?>
<svg
   xmlns:dc="http://purl.org/dc/elements/1.1/"
   xmlns:cc="http://creativecommons.org/ns#"
   xmlns:rdf="http://www.w3.org/1999/02/22-rdf-syntax-ns#"
   xmlns:svg="http://www.w3.org/2000/svg"
   xmlns="http://www.w3.org/2000/svg"
   xmlns:sodipodi="http://sodipodi.sourceforge.net/DTD/sodipodi-0.dtd"
   xmlns:inkscape="http://www.inkscape.org/namespaces/inkscape"
   enable-background="new 0 0 24 24"
   height="24px"
   id="Layer_1"
   version="1.1"
   viewBox="0 0 24 24"
   width="24px"
   xml:space="preserve"
   sodipodi:docname="steering-blue.svg"
   inkscape:version="1.0.1 (3bc2e813f5, 2020-09-07)"><metadata
     id="metadata9"><rdf:RDF><cc:Work
         rdf:about=""><dc:format>image/svg+xml</dc:format><dc:type
           rdf:resource="http://purl.org/dc/dcmitype/StillImage" /><dc:title></dc:title></cc:Work></rdf:RDF></metadata><defs
     id="defs7" /><sodipodi:namedview
     pagecolor="#ffffff"
     bordercolor="#666666"
     borderopacity="1"
     objecttolerance="10"
     gridtolerance="10"
     guidetolerance="10"
     inkscape:pageopacity="0"
     inkscape:pageshadow="2"
     inkscape:window-width="1920"
     inkscape:window-height="1017"
     id="namedview5"
     showgrid="false"
     inkscape:zoom="25.043365"
     inkscape:cx="12"
     inkscape:cy="12"
     inkscape:window-x="1912"
     inkscape:window-y="-8"
     inkscape:window-maximized="1"
     inkscape:current-layer="Layer_1" /><circle
     style="fill:#f5f5f5;fill-opacity:1;fill-rule:evenodd;stroke:#ffffff;stroke-width:0;stroke-miterlimit:4;stroke-dasharray:none;stroke-opacity:1"
     id="path839"
     cx="12.083926"
     cy="12.083926"
     r="12.083925" /><path
     d="M 21.504885,11.227475 H 19.706336 C 19.535047,9.7715093 18.935533,8.4011868 18.079081,7.2878008 l 1.284677,-1.2846765 c 0.342578,-0.3425802 0.342578,-0.8564508 0,-1.199031 -0.342581,-0.3425804 -0.856451,-0.3425804 -1.199032,0 L 16.88005,6.0887695 C 15.766663,5.2323186 14.396342,4.6328031 12.940376,4.4615129 V 2.6629662 c 0,-0.5138706 -0.342581,-0.856451 -0.856451,-0.856451 -0.51387,0 -0.856451,0.3425804 -0.856451,0.856451 V 4.4615129 C 9.7715085,4.6328031 8.4011864,5.1466735 7.287801,6.0887695 L 6.0031241,4.8040933 c -0.34258,-0.3425804 -0.8564506,-0.3425804 -1.1990315,0 -0.3425802,0.3425802 -0.3425802,0.8564508 0,1.199031 L 6.0887693,7.2878008 C 5.2323178,8.4011868 4.632803,9.7715093 4.4615124,11.227475 H 2.6629651 c -0.5138698,0 -0.8564506,0.342581 -0.8564506,0.856451 0,0.51387 0.3425808,0.856451 0.8564506,0.856451 h 1.7985473 c 0.1712906,1.455966 0.7708054,2.826287 1.6272569,3.939674 l -1.2846767,1.284676 c -0.3425802,0.342581 -0.3425802,0.856451 0,1.199032 0.3425809,0.342579 0.8564515,0.342579 1.1990315,0 L 7.287801,18.079082 c 1.1133854,0.856452 2.4837075,1.455966 3.939673,1.627256 v 1.798548 c 0,0.51387 0.342581,0.856451 0.856451,0.856451 0.51387,0 0.856451,-0.342581 0.856451,-0.856451 v -1.798548 c 1.455966,-0.17129 2.826287,-0.770804 3.939674,-1.627256 l 1.284676,1.284677 c 0.342581,0.342579 0.856451,0.342579 1.199032,0 0.342578,-0.342581 0.342578,-0.856451 0,-1.199032 l -1.284677,-1.284676 c 0.856452,-1.113387 1.455966,-2.483708 1.627255,-3.939674 h 1.798549 c 0.51387,0 0.856451,-0.342581 0.856451,-0.856451 0,-0.51387 -0.342581,-0.856451 -0.856451,-0.856451 z m -3.511449,0 h -2.654998 c -0.08565,-0.342581 -0.17129,-0.599516 -0.34258,-0.856451 L 16.88005,8.4868319 c 0.599515,0.7708058 1.02774,1.7129021 1.113386,2.7406431 z m -3.425804,1.284676 c 0,0.171289 -0.08564,0.256936 -0.08564,0.428226 0,0.08565 -0.08565,0.171291 -0.08565,0.256936 -0.256934,0.51387 -0.685161,0.942095 -1.199032,1.19903 -0.08564,0 -0.171289,0.08565 -0.256934,0.08565 -0.171291,0.08564 -0.256936,0.08564 -0.428225,0.08564 -0.08564,0.08565 -0.256936,0.08565 -0.428227,0.08565 -0.17129,0 -0.34258,0 -0.428225,-0.08565 -0.171289,0 -0.256935,-0.08564 -0.428225,-0.08564 -0.08565,0 -0.171291,-0.08565 -0.256935,-0.08565 v 0 c -0.513867,-0.256935 -0.942094,-0.68516 -1.1990278,-1.19903 0,-0.08564 -0.085654,-0.171291 -0.085654,-0.256936 -0.085643,-0.17129 -0.085643,-0.256937 -0.085643,-0.428226 -0.085643,-0.08564 -0.085643,-0.256936 -0.085643,-0.428225 0,-0.171289 0,-0.342581 0.085643,-0.428225 0,-0.171289 0.085654,-0.256936 0.085654,-0.428226 0,-0.08565 0.085654,-0.171291 0.085654,-0.256936 0.2569348,-0.51387 0.6851588,-0.942095 1.1990318,-1.1990297 0.08564,0 0.171289,-0.085643 0.256934,-0.085643 0.171291,-0.08565 0.256936,-0.08565 0.428225,-0.08565 0.08564,-0.085641 0.256935,-0.085641 0.428224,-0.085641 0.171291,0 0.342582,0 0.428226,0.085641 0.17129,0 0.256936,0.08565 0.428225,0.08565 0.08565,0 0.171291,0.085653 0.256936,0.085653 0.51387,0.2569357 0.942096,0.6851607 1.199031,1.1990307 0,0.08564 0.08565,0.171289 0.08565,0.256935 0.08564,0.17129 0.08564,0.256935 0.08564,0.428226 0,0.17129 0.08565,0.256935 0.08565,0.428225 0,0.17129 0,0.342581 -0.08565,0.428225 z M 15.681019,7.2878008 13.796827,9.1719926 C 13.539891,9.0007023 13.197312,8.9150573 12.940376,8.8294122 V 6.1744145 c 1.027741,0.085645 1.969837,0.5138706 2.740643,1.1133863 z M 11.227474,6.1744145 v 2.6549977 c -0.342581,0.085645 -0.599516,0.1712901 -0.856451,0.3425804 L 8.4868313,7.2878008 C 9.2576361,6.6882851 10.199733,6.2600597 11.227474,6.1744145 Z M 7.287801,8.4868319 9.1719909,10.371024 C 9.0007015,10.627959 8.9150573,10.970539 8.8294111,11.227475 H 6.1744137 C 6.2600561,10.199734 6.6882842,9.2576377 7.287801,8.4868319 Z M 6.1744137,12.940377 h 2.6549974 c 0.085643,0.342581 0.1712904,0.599516 0.3425798,0.856451 L 7.287801,15.68102 C 6.6882842,14.910215 6.2600599,13.968118 6.1744137,12.940377 Z m 2.3124176,3.939674 1.8841917,-1.884192 c 0.256935,0.171291 0.599515,0.256935 0.856451,0.34258 v 2.654998 C 10.199733,17.907784 9.2576361,17.479566 8.4868313,16.880051 Z m 4.4535447,1.113386 v -2.654998 c 0.342581,-0.08565 0.599515,-0.171289 0.856451,-0.34258 l 1.884192,1.884192 c -0.770806,0.599515 -1.712902,1.02774 -2.740643,1.113386 z M 16.88005,15.68102 14.995858,13.796828 c 0.17129,-0.256935 0.256935,-0.599515 0.34258,-0.856451 h 2.654998 c -0.08565,1.027741 -0.513871,1.969838 -1.113386,2.740643 z"
     id="path2"
     style="fill:#708090;fill-opacity:1;stroke-width:0.856451" /><ellipse
     style="fill:#ff0000;fill-rule:evenodd"
     id="path834"
     cx="-16.970562"
     cy="-4.8515844"
     rx="0.15972294"
     ry="0.059896104" /></svg>
