<?xml version="1.0" encoding="UTF-8" standalone="no"?>
<svg
   xmlns:dc="http://purl.org/dc/elements/1.1/"
   xmlns:cc="http://creativecommons.org/ns#"
   xmlns:rdf="http://www.w3.org/1999/02/22-rdf-syntax-ns#"
   xmlns:svg="http://www.w3.org/2000/svg"
   xmlns="http://www.w3.org/2000/svg"
   xmlns:sodipodi="http://sodipodi.sourceforge.net/DTD/sodipodi-0.dtd"
   xmlns:inkscape="http://www.inkscape.org/namespaces/inkscape"
   data-name="Layer 1"
   id="Layer_1"
   viewBox="0 0 24.167853 24.167853"
   version="1.1"
   sodipodi:docname="blue.svg"
   width="24.167852"
   height="24.167852"
   inkscape:version="1.0.1 (3bc2e813f5, 2020-09-07)">
  <metadata
     id="metadata21">
    <rdf:RDF>
      <cc:Work
         rdf:about="">
        <dc:format>image/svg+xml</dc:format>
        <dc:type
           rdf:resource="http://purl.org/dc/dcmitype/StillImage" />
        <dc:title></dc:title>
      </cc:Work>
    </rdf:RDF>
  </metadata>
  <sodipodi:namedview
     pagecolor="#ffffff"
     bordercolor="#666666"
     borderopacity="1"
     objecttolerance="10"
     gridtolerance="10"
     guidetolerance="10"
     inkscape:pageopacity="0"
     inkscape:pageshadow="2"
     inkscape:window-width="1920"
     inkscape:window-height="1017"
     id="namedview19"
     showgrid="false"
     fit-margin-top="0"
     fit-margin-left="0"
     fit-margin-right="0"
     fit-margin-bottom="0"
     inkscape:zoom="9.3912619"
     inkscape:cx="-14.329558"
     inkscape:cy="13.29017"
     inkscape:window-x="1358"
     inkscape:window-y="-8"
     inkscape:window-maximized="1"
     inkscape:current-layer="Layer_1"
     showborder="false" />
  <defs
     id="defs4">
    <style
       id="style2">.cls-1{fill:none;stroke:#078cd6;stroke-linecap:round;stroke-linejoin:round;stroke-width:2px;}</style>
  </defs>
  <circle
     style="fill:#f5f5f5;fill-opacity:1;fill-rule:evenodd;stroke:#ffffff;stroke-width:0;stroke-miterlimit:4;stroke-dasharray:none;stroke-opacity:1"
     id="path839"
     cx="-39.937817"
     cy="12.083926"
     r="12.083925" />
  <g
     id="g6"
     transform="matrix(0.03967414,0,0,0.03967298,-49.324751,-25.020224)"
     style="fill:#9e414b;fill-opacity:1;stroke:#9e414b;stroke-width:0;stroke-miterlimit:4;stroke-dasharray:none;stroke-opacity:1">
    <path
       d="M 443.911,156.283 421.4,133.773 c -7.579,-7.579 -18.372,-10.354 -28.306,-7.94 2.416,-9.938 -0.364,-20.729 -7.94,-28.306 l -48.83,-48.83 c -4.514,-4.514 -10.21,-7.353 -16.215,-8.367 -1.015,-6.01 -3.858,-11.706 -8.367,-16.215 L 296.414,8.787 c -11.716,-11.716 -30.711,-11.716 -42.427,0 L 100.481,162.294 c -11.716,11.715 -11.716,30.71 0,42.426 l 32.694,32.694 c 3.065,3.064 4.551,7.294 4.078,11.604 -0.473,4.31 -2.849,8.122 -6.519,10.461 -97.448,62.117 -106.6,71.269 -110.509,75.178 -26.967,26.967 -26.968,70.847 0,97.813 26.967,26.968 70.846,26.968 97.814,0 3.909,-3.909 13.062,-13.062 75.178,-110.509 2.327,-3.651 6.136,-6.016 10.451,-6.49 4.332,-0.476 8.565,1 11.615,4.05 l 32.694,32.694 c 11.716,11.716 30.711,11.715 42.427,0 L 443.911,198.71 c 11.715,-11.716 11.715,-30.711 0,-42.427 z M 269.191,331.004 236.497,298.31 c -9.479,-9.479 -22.776,-14.121 -36.101,-12.658 -13.325,1.463 -25.27,8.882 -32.475,20.186 -27.532,43.192 -62.214,96.542 -71.094,105.421 -15.295,15.295 -40.093,15.295 -55.388,0 -15.295,-15.295 -15.295,-40.092 0,-55.388 8.879,-8.879 62.229,-43.561 105.421,-71.094 11.31,-7.209 18.75,-19.152 20.213,-32.484 1.463,-13.332 -3.202,-26.608 -12.685,-36.092 l -32.694,-32.694 23.841,-23.841 v 0 l 147.496,147.496 z m 45.073,-45.074 v 0 L 166.767,138.434 275.201,30 290.529,45.327 273.41,83.303 c -0.583,1.294 -0.304,2.813 0.697,3.814 0.01,0.01 0.021,0.02 0.031,0.03 1.027,1.001 2.57,1.253 3.862,0.631 l 37.111,-17.868 48.83,48.83 -65.291,97.305 c -0.909,1.354 -0.732,3.161 0.421,4.313 0.002,0.002 0.005,0.005 0.007,0.007 1.158,1.152 2.972,1.32 4.322,0.402 l 96.787,-65.782 22.511,22.51 z"
       id="path2"
       style="fill:#9e414b;fill-opacity:1;stroke:#9e414b;stroke-width:0;stroke-miterlimit:4;stroke-dasharray:none;stroke-opacity:1" />
    <circle
       cx="73.846001"
       cy="378.85199"
       r="17.666"
       id="circle4"
       style="fill:#9e414b;fill-opacity:1;stroke:#9e414b;stroke-width:0;stroke-miterlimit:4;stroke-dasharray:none;stroke-opacity:1" />
  </g>
  <circle
     style="fill:#f5f5f5;fill-opacity:1;fill-rule:evenodd;stroke:#ffffff;stroke-width:0;stroke-miterlimit:4;stroke-dasharray:none;stroke-opacity:1"
     id="path839-6"
     cx="-13.926947"
     cy="12.083926"
     r="12.083925" />
  <circle
     style="fill:#f5f5f5;fill-opacity:1;fill-rule:evenodd;stroke:#ffffff;stroke-width:0;stroke-miterlimit:4;stroke-dasharray:none;stroke-opacity:1"
     id="circle982"
     cx="12.083926"
     cy="12.083926"
     r="12.083925" />
  <g
     id="g988"
     transform="matrix(0.03967414,0,0,0.03967298,-23.324753,-25.020224)"
     style="fill:#aec3b0;fill-opacity:1;stroke:#aec3b0;stroke-width:0;stroke-miterlimit:4;stroke-dasharray:none;stroke-opacity:1">
    <path
       d="M 443.911,156.283 421.4,133.773 c -7.579,-7.579 -18.372,-10.354 -28.306,-7.94 2.416,-9.938 -0.364,-20.729 -7.94,-28.306 l -48.83,-48.83 c -4.514,-4.514 -10.21,-7.353 -16.215,-8.367 -1.015,-6.01 -3.858,-11.706 -8.367,-16.215 L 296.414,8.787 c -11.716,-11.716 -30.711,-11.716 -42.427,0 L 100.481,162.294 c -11.716,11.715 -11.716,30.71 0,42.426 l 32.694,32.694 c 3.065,3.064 4.551,7.294 4.078,11.604 -0.473,4.31 -2.849,8.122 -6.519,10.461 -97.448,62.117 -106.6,71.269 -110.509,75.178 -26.967,26.967 -26.968,70.847 0,97.813 26.967,26.968 70.846,26.968 97.814,0 3.909,-3.909 13.062,-13.062 75.178,-110.509 2.327,-3.651 6.136,-6.016 10.451,-6.49 4.332,-0.476 8.565,1 11.615,4.05 l 32.694,32.694 c 11.716,11.716 30.711,11.715 42.427,0 L 443.911,198.71 c 11.715,-11.716 11.715,-30.711 0,-42.427 z M 269.191,331.004 236.497,298.31 c -9.479,-9.479 -22.776,-14.121 -36.101,-12.658 -13.325,1.463 -25.27,8.882 -32.475,20.186 -27.532,43.192 -62.214,96.542 -71.094,105.421 -15.295,15.295 -40.093,15.295 -55.388,0 -15.295,-15.295 -15.295,-40.092 0,-55.388 8.879,-8.879 62.229,-43.561 105.421,-71.094 11.31,-7.209 18.75,-19.152 20.213,-32.484 1.463,-13.332 -3.202,-26.608 -12.685,-36.092 l -32.694,-32.694 23.841,-23.841 v 0 l 147.496,147.496 z m 45.073,-45.074 v 0 L 166.767,138.434 275.201,30 290.529,45.327 273.41,83.303 c -0.583,1.294 -0.304,2.813 0.697,3.814 0.01,0.01 0.021,0.02 0.031,0.03 1.027,1.001 2.57,1.253 3.862,0.631 l 37.111,-17.868 48.83,48.83 -65.291,97.305 c -0.909,1.354 -0.732,3.161 0.421,4.313 0.002,0.002 0.005,0.005 0.007,0.007 1.158,1.152 2.972,1.32 4.322,0.402 l 96.787,-65.782 22.511,22.51 z"
       id="path984"
       style="fill:#aec3b0;fill-opacity:1;stroke:#aec3b0;stroke-width:0;stroke-miterlimit:4;stroke-dasharray:none;stroke-opacity:1" />
    <circle
       cx="73.846001"
       cy="378.85199"
       r="17.666"
       id="circle986"
       style="fill:#aec3b0;fill-opacity:1;stroke:#aec3b0;stroke-width:0;stroke-miterlimit:4;stroke-dasharray:none;stroke-opacity:1" />
  </g>
  <g
     id="g994"
     transform="matrix(0.03967414,0,0,0.03967298,2.6752487,-25.020224)"
     style="fill:#748cab;fill-opacity:1;stroke:#748cab;stroke-width:0;stroke-miterlimit:4;stroke-dasharray:none;stroke-opacity:1">
    <path
       d="M 443.911,156.283 421.4,133.773 c -7.579,-7.579 -18.372,-10.354 -28.306,-7.94 2.416,-9.938 -0.364,-20.729 -7.94,-28.306 l -48.83,-48.83 c -4.514,-4.514 -10.21,-7.353 -16.215,-8.367 -1.015,-6.01 -3.858,-11.706 -8.367,-16.215 L 296.414,8.787 c -11.716,-11.716 -30.711,-11.716 -42.427,0 L 100.481,162.294 c -11.716,11.715 -11.716,30.71 0,42.426 l 32.694,32.694 c 3.065,3.064 4.551,7.294 4.078,11.604 -0.473,4.31 -2.849,8.122 -6.519,10.461 -97.448,62.117 -106.6,71.269 -110.509,75.178 -26.967,26.967 -26.968,70.847 0,97.813 26.967,26.968 70.846,26.968 97.814,0 3.909,-3.909 13.062,-13.062 75.178,-110.509 2.327,-3.651 6.136,-6.016 10.451,-6.49 4.332,-0.476 8.565,1 11.615,4.05 l 32.694,32.694 c 11.716,11.716 30.711,11.715 42.427,0 L 443.911,198.71 c 11.715,-11.716 11.715,-30.711 0,-42.427 z M 269.191,331.004 236.497,298.31 c -9.479,-9.479 -22.776,-14.121 -36.101,-12.658 -13.325,1.463 -25.27,8.882 -32.475,20.186 -27.532,43.192 -62.214,96.542 -71.094,105.421 -15.295,15.295 -40.093,15.295 -55.388,0 -15.295,-15.295 -15.295,-40.092 0,-55.388 8.879,-8.879 62.229,-43.561 105.421,-71.094 11.31,-7.209 18.75,-19.152 20.213,-32.484 1.463,-13.332 -3.202,-26.608 -12.685,-36.092 l -32.694,-32.694 23.841,-23.841 v 0 l 147.496,147.496 z m 45.073,-45.074 v 0 L 166.767,138.434 275.201,30 290.529,45.327 273.41,83.303 c -0.583,1.294 -0.304,2.813 0.697,3.814 0.01,0.01 0.021,0.02 0.031,0.03 1.027,1.001 2.57,1.253 3.862,0.631 l 37.111,-17.868 48.83,48.83 -65.291,97.305 c -0.909,1.354 -0.732,3.161 0.421,4.313 0.002,0.002 0.005,0.005 0.007,0.007 1.158,1.152 2.972,1.32 4.322,0.402 l 96.787,-65.782 22.511,22.51 z"
       id="path990"
       style="fill:#748cab;fill-opacity:1;stroke:#748cab;stroke-width:0;stroke-miterlimit:4;stroke-dasharray:none;stroke-opacity:1" />
    <circle
       cx="73.846001"
       cy="378.85199"
       r="17.666"
       id="circle992"
       style="fill:#748cab;fill-opacity:1;stroke:#748cab;stroke-width:0;stroke-miterlimit:4;stroke-dasharray:none;stroke-opacity:1" />
  </g>
  <circle
     style="fill:#9e414b;fill-opacity:1;fill-rule:evenodd;stroke:#9e414b;stroke-width:0;stroke-miterlimit:4;stroke-dasharray:none;stroke-opacity:1"
     id="circle996"
     cx="-39.937817"
     cy="12.083926"
     r="10.273732" />
  <circle
     style="fill:#aec3b0;fill-opacity:1;fill-rule:evenodd;stroke:#9e414b;stroke-width:0;stroke-miterlimit:4;stroke-dasharray:none;stroke-opacity:1"
     id="circle998"
     cx="-13.937815"
     cy="12.083926"
     r="10.273732" />
  <circle
     style="fill:#748cab;fill-opacity:1;fill-rule:evenodd;stroke:#9e414b;stroke-width:0;stroke-miterlimit:4;stroke-dasharray:none;stroke-opacity:1"
     id="circle1000"
     cx="12.062182"
     cy="12.083926"
     r="10.273732" />
</svg>
