<?xml version="1.0" encoding="UTF-8" standalone="no"?>
<svg
   xmlns:dc="http://purl.org/dc/elements/1.1/"
   xmlns:cc="http://creativecommons.org/ns#"
   xmlns:rdf="http://www.w3.org/1999/02/22-rdf-syntax-ns#"
   xmlns:svg="http://www.w3.org/2000/svg"
   xmlns="http://www.w3.org/2000/svg"
   xmlns:sodipodi="http://sodipodi.sourceforge.net/DTD/sodipodi-0.dtd"
   xmlns:inkscape="http://www.inkscape.org/namespaces/inkscape"
   viewBox="0 0 20.307793 22"
   version="1.1"
   id="svg18"
   sodipodi:docname="bell.svg"
   width="20.307793"
   height="22"
   inkscape:version="1.0.1 (3bc2e813f5, 2020-09-07)">
  <metadata
     id="metadata22">
    <rdf:RDF>
      <cc:Work
         rdf:about="">
        <dc:format>image/svg+xml</dc:format>
        <dc:type
           rdf:resource="http://purl.org/dc/dcmitype/StillImage" />
        <dc:title />
      </cc:Work>
    </rdf:RDF>
  </metadata>
  <sodipodi:namedview
     pagecolor="#ffffff"
     bordercolor="#666666"
     borderopacity="1"
     objecttolerance="10"
     gridtolerance="10"
     guidetolerance="10"
     inkscape:pageopacity="0"
     inkscape:pageshadow="2"
     inkscape:window-width="1920"
     inkscape:window-height="1017"
     id="namedview20"
     showgrid="false"
     fit-margin-top="0"
     fit-margin-left="0"
     fit-margin-right="0"
     fit-margin-bottom="0"
     inkscape:zoom="27.125"
     inkscape:cx="12.000002"
     inkscape:cy="13"
     inkscape:window-x="1912"
     inkscape:window-y="-8"
     inkscape:window-maximized="1"
     inkscape:current-layer="svg18"
     inkscape:document-rotation="0" />
  <defs
     id="defs4">
    <style
       id="style2">.cls-1{fill:none;}</style>
  </defs>
  <g
     data-name="Layer 2"
     id="Layer_2"
     transform="matrix(0.84615385,0,0,0.84615385,-3.3846136,-2.5384616)"
     style="fill:#ffffff;fill-opacity:1">
    <path
       d="m 16,29 a 4,4 0 0 1 -4,-4 1,1 0 0 1 1,-1 h 6 a 1,1 0 0 1 1,1 4,4 0 0 1 -4,4 z m -1.73,-3 a 2,2 0 0 0 3.46,0 z"
       id="path8"
       style="fill:#ffffff;fill-opacity:1" />
    <path
       d="M 18,7 H 14 A 1,1 0 0 1 13,6 3,3 0 0 1 19,6 1,1 0 0 1 18,7 Z M 16,5 Z"
       id="path10"
       style="fill:#ffffff;fill-opacity:1" />
    <path
       d="M 27,26 H 5 A 1,1 0 0 1 4,25 7,7 0 0 1 7,19.25 V 14 a 9,9 0 0 1 8.94,-9 h 0.11 a 9,9 0 0 1 9,9 v 5.25 A 7,7 0 0 1 28,25 v 0 a 1,1 0 0 1 -1,1 z M 6.1,24 H 25.9 A 5,5 0 0 0 23.5,20.67 1,1 0 0 1 23,19.8 V 14 A 7,7 0 1 0 9,14 v 5.8 A 1,1 0 0 1 8.5,20.67 5,5 0 0 0 6.1,24 Z"
       id="path12"
       style="fill:#ffffff;fill-opacity:1" />
  </g>
  <g
     id="frame"
     transform="translate(-3.9999979,-3)">
    <rect
       class="cls-1"
       height="32"
       width="32"
       id="rect15"
       x="0"
       y="0" />
  </g>
</svg>
