<?xml version="1.0" encoding="UTF-8" standalone="no"?>
<svg
   xmlns:dc="http://purl.org/dc/elements/1.1/"
   xmlns:cc="http://creativecommons.org/ns#"
   xmlns:rdf="http://www.w3.org/1999/02/22-rdf-syntax-ns#"
   xmlns:svg="http://www.w3.org/2000/svg"
   xmlns="http://www.w3.org/2000/svg"
   xmlns:sodipodi="http://sodipodi.sourceforge.net/DTD/sodipodi-0.dtd"
   xmlns:inkscape="http://www.inkscape.org/namespaces/inkscape"
   viewBox="0 0 22 22"
   fill="#000000"
   width="22"
   height="22"
   version="1.1"
   id="svg908"
   sodipodi:docname="list.svg"
   inkscape:version="1.0.1 (3bc2e813f5, 2020-09-07)">
  <metadata
     id="metadata914">
    <rdf:RDF>
      <cc:Work
         rdf:about="">
        <dc:format>image/svg+xml</dc:format>
        <dc:type
           rdf:resource="http://purl.org/dc/dcmitype/StillImage" />
        <dc:title></dc:title>
      </cc:Work>
    </rdf:RDF>
  </metadata>
  <defs
     id="defs912" />
  <sodipodi:namedview
     pagecolor="#ffffff"
     bordercolor="#666666"
     borderopacity="1"
     objecttolerance="10"
     gridtolerance="10"
     guidetolerance="10"
     inkscape:pageopacity="0"
     inkscape:pageshadow="2"
     inkscape:window-width="1920"
     inkscape:window-height="1017"
     id="namedview910"
     showgrid="false"
     fit-margin-top="0"
     fit-margin-left="0"
     fit-margin-right="0"
     fit-margin-bottom="0"
     inkscape:zoom="35.416667"
     inkscape:cx="9.0455001"
     inkscape:cy="9.0455001"
     inkscape:window-x="1272"
     inkscape:window-y="-8"
     inkscape:window-maximized="1"
     inkscape:current-layer="svg908" />
  <path
     d="M -2.9544999,-2.9544999 H 21.0455 V 21.0455 H -2.9544999 Z"
     fill="none"
     id="path904" />
  <path
     d="M 9.7839261,4.9196285 H 17.080372 V 7.3517771 H 9.7839261 Z m 0,4.8642966 H 17.080372 V 12.216074 H 9.7839261 Z m 0,4.8642969 h 7.2964459 v 2.432149 H 9.7839261 Z M 4.9196287,4.9196285 H 7.3517771 V 7.3517771 H 4.9196287 Z m 0,4.8642966 H 7.3517771 V 12.216074 H 4.9196287 Z m 0,4.8642969 h 2.4321484 v 2.432149 H 4.9196287 Z M 20.850202,0.0553315 H 1.1497983 c -0.6080371,0 -1.0944668,0.4864297 -1.0944668,1.0944668 V 20.850201 c 0,0.486429 0.4864297,1.094467 1.0944668,1.094467 H 20.850202 c 0.486429,0 1.094467,-0.608038 1.094467,-1.094467 V 1.1497983 c 0,-0.6080371 -0.608038,-1.0944668 -1.094467,-1.0944668 z M 19.51252,19.512519 H 2.4874801 V 2.4874799 H 19.51252 Z"
     id="path906"
     style="fill:#ffffff;fill-opacity:1;stroke:#000000;stroke-width:0.110663;stroke-miterlimit:4;stroke-dasharray:none;stroke-opacity:1" />
</svg>
