<?xml version="1.0" encoding="UTF-8" standalone="no"?>
<svg
   xmlns:dc="http://purl.org/dc/elements/1.1/"
   xmlns:cc="http://creativecommons.org/ns#"
   xmlns:rdf="http://www.w3.org/1999/02/22-rdf-syntax-ns#"
   xmlns:svg="http://www.w3.org/2000/svg"
   xmlns="http://www.w3.org/2000/svg"
   xmlns:sodipodi="http://sodipodi.sourceforge.net/DTD/sodipodi-0.dtd"
   xmlns:inkscape="http://www.inkscape.org/namespaces/inkscape"
   width="5.8208332mm"
   height="5.8208332mm"
   viewBox="0 0 5.8208331 5.8208332"
   version="1.1"
   id="svg988"
   inkscape:version="1.0.1 (3bc2e813f5, 2020-09-07)"
   sodipodi:docname="logout-dark.svg">
  <defs
     id="defs982" />
  <sodipodi:namedview
     id="base"
     pagecolor="#ffffff"
     bordercolor="#666666"
     borderopacity="1.0"
     inkscape:pageopacity="0.0"
     inkscape:pageshadow="2"
     inkscape:zoom="4.3072917"
     inkscape:cx="-38.34201"
     inkscape:cy="22.48511"
     inkscape:document-units="mm"
     inkscape:current-layer="g1619"
     inkscape:document-rotation="0"
     showgrid="false"
     fit-margin-top="0"
     fit-margin-left="0"
     fit-margin-right="0"
     fit-margin-bottom="0"
     inkscape:window-width="1920"
     inkscape:window-height="1017"
     inkscape:window-x="1358"
     inkscape:window-y="-8"
     inkscape:window-maximized="1"
     showborder="true" />
  <metadata
     id="metadata985">
    <rdf:RDF>
      <cc:Work
         rdf:about="">
        <dc:format>image/svg+xml</dc:format>
        <dc:type
           rdf:resource="http://purl.org/dc/dcmitype/StillImage" />
        <dc:title></dc:title>
      </cc:Work>
    </rdf:RDF>
  </metadata>
  <g
     inkscape:label="Layer 1"
     inkscape:groupmode="layer"
     id="layer1"
     transform="translate(-225.62698,-68.823105)">
    <g
       id="g1619"
       transform="matrix(0.13934224,0,0,0.13934224,191.36703,14.260282)">
      <g
         inkscape:export-ydpi="68"
         inkscape:export-xdpi="68"
         style="fill:#dcdcdc"
         transform="matrix(0.47418136,0,0,0.54965323,243.06971,384.97834)"
         id="g1076">
        <g
           style="fill:#dcdcdc"
           transform="translate(0,-952.36218)"
           id="g1074">
          <path
             style="color:#000000;font-style:normal;font-variant:normal;font-weight:normal;font-stretch:normal;font-size:medium;line-height:normal;font-family:Sans;-inkscape-font-specification:Sans;text-indent:0;text-align:start;text-decoration:none;text-decoration-line:none;letter-spacing:normal;word-spacing:normal;text-transform:none;writing-mode:lr-tb;direction:ltr;baseline-shift:baseline;text-anchor:start;display:inline;overflow:visible;visibility:visible;opacity:1;fill:#dcdcdc;fill-opacity:1;stroke:none;stroke-width:4;marker:none;enable-background:accumulate"
             d="M 55.875,12 C 38.333657,12 23.534521,23.82987 19.125,39.96875 A 2.0090129,2.0090129 0 1 0 23,41.03125 C 26.941303,26.60605 40.133229,16 55.875,16 74.732441,16 90,31.19695 90,50 90,68.8031 74.732448,84 55.875,84 40.133231,84 26.9413,73.3626 23,58.9375 A 2.0090129,2.0090129 0 1 0 19.125,60 C 23.534524,76.1387 38.333657,88 55.875,88 76.887698,88 94,70.9731 94,50 94,29.02703 76.887705,12 55.875,12 Z m -9.90625,20.21875 a 2.0001999,2.0001999 0 0 0 -1.0625,3.5625 L 59.6875,48 H 8 A 2.0001996,2.0001996 0 0 0 7.8125,48 2.0021961,2.0021961 0 1 0 8,52 H 59.6875 L 44.90625,64.1875 a 2.0001999,2.0001999 0 1 0 2.53125,3.09375 l 19.09375,-15.75 a 2.0001999,2.0001999 0 0 0 0,-3.09375 L 47.4375,32.6875 a 2.0001999,2.0001999 0 0 0 -1.46875,-0.46875 z"
             transform="translate(0,952.36218)"
             id="path1072" />
        </g>
      </g>
    </g>
  </g>
</svg>
