<?xml version="1.0" encoding="UTF-8" standalone="no"?>
<svg
   xmlns:dc="http://purl.org/dc/elements/1.1/"
   xmlns:cc="http://creativecommons.org/ns#"
   xmlns:rdf="http://www.w3.org/1999/02/22-rdf-syntax-ns#"
   xmlns:svg="http://www.w3.org/2000/svg"
   xmlns="http://www.w3.org/2000/svg"
   xmlns:sodipodi="http://sodipodi.sourceforge.net/DTD/sodipodi-0.dtd"
   xmlns:inkscape="http://www.inkscape.org/namespaces/inkscape"
   version="1.1"
   viewBox="0 0 22.344566 22.344566"
   xml:space="preserve"
   id="svg9"
   sodipodi:docname="Logout.svg"
   width="22.344566"
   height="22.344566"
   inkscape:version="1.0.1 (3bc2e813f5, 2020-09-07)"><metadata
     id="metadata15"><rdf:RDF><cc:Work
         rdf:about=""><dc:format>image/svg+xml</dc:format><dc:type
           rdf:resource="http://purl.org/dc/dcmitype/StillImage" /><dc:title></dc:title></cc:Work></rdf:RDF></metadata><defs
     id="defs13" /><sodipodi:namedview
     pagecolor="#ffffff"
     bordercolor="#666666"
     borderopacity="1"
     objecttolerance="10"
     gridtolerance="10"
     guidetolerance="10"
     inkscape:pageopacity="0"
     inkscape:pageshadow="2"
     inkscape:window-width="1920"
     inkscape:window-height="1017"
     id="namedview11"
     showgrid="false"
     fit-margin-top="0"
     fit-margin-left="0"
     fit-margin-right="0"
     fit-margin-bottom="0"
     inkscape:zoom="35.416667"
     inkscape:cx="10"
     inkscape:cy="10"
     inkscape:window-x="1358"
     inkscape:window-y="-8"
     inkscape:window-maximized="1"
     inkscape:current-layer="svg9" /><g
     id="info"
     transform="translate(-1.9999999,-1.9999999)" /><g
     id="icons"
     transform="matrix(1.1172283,0,0,1.1172283,-2.2344566,-2.2344566)"
     style="fill:#ffffff;fill-opacity:1;stroke:#000000;stroke-opacity:1;stroke-width:0.08145157;stroke-miterlimit:4;stroke-dasharray:none"><g
       id="exit2"
       style="fill:#ffffff;fill-opacity:1;stroke:#000000;stroke-opacity:1;stroke-width:0.08145157;stroke-miterlimit:4;stroke-dasharray:none"><path
         d="m 12,10 c 1.1,0 2,-0.9 2,-2 V 4 C 14,2.9 13.1,2 12,2 10.9,2 10,2.9 10,4 v 4 c 0,1.1 0.9,2 2,2 z"
         id="path3"
         style="fill:#ffffff;fill-opacity:1;stroke:#000000;stroke-opacity:1;stroke-width:0.08145157;stroke-miterlimit:4;stroke-dasharray:none" /><path
         d="m 19.1,4.9 v 0 C 18.8,4.6 18.5,4.5 18,4.5 c -0.8,0 -1.5,0.7 -1.5,1.5 0,0.4 0.2,0.8 0.4,1.1 v 0 c 0,0 0,0 0,0 0,0 0,0 0,0 1.3,1.3 2,3 2,4.9 0,3.9 -3.1,7 -7,7 -3.9,0 -7,-3.1 -7,-7 0,-1.9 0.8,-3.7 2.1,-4.9 v 0 C 7.3,6.8 7.5,6.4 7.5,6 7.5,5.2 6.8,4.5 6,4.5 5.6,4.5 5.2,4.7 4.9,4.9 v 0 C 3.1,6.7 2,9.2 2,12 2,17.5 6.5,22 12,22 17.5,22 22,17.5 22,12 22,9.2 20.9,6.7 19.1,4.9 Z"
         id="path5"
         style="fill:#ffffff;fill-opacity:1;stroke:#000000;stroke-opacity:1;stroke-width:0.08145157;stroke-miterlimit:4;stroke-dasharray:none" /></g></g></svg>
