<?xml version="1.0" encoding="UTF-8" standalone="no"?>
<svg
   xmlns:dc="http://purl.org/dc/elements/1.1/"
   xmlns:cc="http://creativecommons.org/ns#"
   xmlns:rdf="http://www.w3.org/1999/02/22-rdf-syntax-ns#"
   xmlns:svg="http://www.w3.org/2000/svg"
   xmlns="http://www.w3.org/2000/svg"
   xmlns:sodipodi="http://sodipodi.sourceforge.net/DTD/sodipodi-0.dtd"
   xmlns:inkscape="http://www.inkscape.org/namespaces/inkscape"
   width="20"
   height="20"
   viewBox="0 0 20 20"
   version="1.1"
   id="svg14"
   sodipodi:docname="persons.svg"
   inkscape:version="1.0.1 (3bc2e813f5, 2020-09-07)">
  <metadata
     id="metadata20">
    <rdf:RDF>
      <cc:Work
         rdf:about="">
        <dc:format>image/svg+xml</dc:format>
        <dc:type
           rdf:resource="http://purl.org/dc/dcmitype/StillImage" />
        <dc:title>supervised_user_circle</dc:title>
      </cc:Work>
    </rdf:RDF>
  </metadata>
  <defs
     id="defs18" />
  <sodipodi:namedview
     pagecolor="#ffffff"
     bordercolor="#666666"
     borderopacity="1"
     objecttolerance="10"
     gridtolerance="10"
     guidetolerance="10"
     inkscape:pageopacity="0"
     inkscape:pageshadow="2"
     inkscape:window-width="1920"
     inkscape:window-height="1017"
     id="namedview16"
     showgrid="false"
     fit-margin-top="0"
     fit-margin-left="0"
     fit-margin-right="0"
     fit-margin-bottom="0"
     inkscape:showpageshadow="false"
     inkscape:zoom="42.25"
     inkscape:cx="10"
     inkscape:cy="10"
     inkscape:window-x="1358"
     inkscape:window-y="-8"
     inkscape:window-maximized="1"
     inkscape:current-layer="svg14" />
  <!-- Generator: Sketch 52.5 (67469) - http://www.bohemiancoding.com/sketch -->
  <title
     id="title2">supervised_user_circle</title>
  <desc
     id="desc4">Created with Sketch.</desc>
  <path
     d="M 10,0 C 4.48,0 0,4.48 0,10 0,15.52 4.48,20 10,20 15.52,20 20,15.52 20,10 20,4.48 15.52,0 10,0 Z m 3.61,6.34 c 1.07,0 1.93,0.86 1.93,1.93 0,1.0700002 -0.86,1.93 -1.93,1.93 -1.07,0 -1.93,-0.8599998 -1.93,-1.93 -0.01,-1.07 0.86,-1.93 1.93,-1.93 z m -6,-1.58 c 1.3,0 2.36,1.06 2.36,2.36 0,1.3 -1.06,2.3600002 -2.36,2.3600002 C 6.31,9.4800002 5.25,8.42 5.25,7.12 5.25,5.81 6.3,4.76 7.61,4.76 Z m 0,9.13 v 3.75 c -2.4,-0.75 -4.3,-2.6 -5.14,-4.96 1.05,-1.12 3.67,-1.69 5.14,-1.69 0.53,0 1.2,0.08 1.9,0.22 -1.64,0.87 -1.9,2.02 -1.9,2.68 z M 10,18 C 9.73,18 9.47,17.99 9.21,17.96 v -4.07 c 0,-1.42 2.94,-2.13 4.4,-2.13 1.07,0 2.92,0.39 3.84,1.15 C 16.28,15.88 13.39,18 10,18 Z"
     id="🔹Icon-Color"
     fill="#1d1d1d"
     style="fill:#ffffff;fill-rule:evenodd;stroke:none;stroke-width:1" />
</svg>
