<?xml version="1.0" encoding="UTF-8" standalone="no"?>
<svg
   xmlns:dc="http://purl.org/dc/elements/1.1/"
   xmlns:cc="http://creativecommons.org/ns#"
   xmlns:rdf="http://www.w3.org/1999/02/22-rdf-syntax-ns#"
   xmlns:svg="http://www.w3.org/2000/svg"
   xmlns="http://www.w3.org/2000/svg"
   xmlns:sodipodi="http://sodipodi.sourceforge.net/DTD/sodipodi-0.dtd"
   xmlns:inkscape="http://www.inkscape.org/namespaces/inkscape"
   height="5.9699998"
   viewBox="0 0 5.9699998 5.9699998"
   width="5.9699998"
   version="1.1"
   id="svg6"
   sodipodi:docname="user.svg"
   inkscape:version="1.0.1 (3bc2e813f5, 2020-09-07)">
  <metadata
     id="metadata12">
    <rdf:RDF>
      <cc:Work
         rdf:about="">
        <dc:format>image/svg+xml</dc:format>
        <dc:type
           rdf:resource="http://purl.org/dc/dcmitype/StillImage" />
        <dc:title></dc:title>
      </cc:Work>
    </rdf:RDF>
  </metadata>
  <defs
     id="defs10" />
  <sodipodi:namedview
     pagecolor="#ffffff"
     bordercolor="#666666"
     borderopacity="1"
     objecttolerance="10"
     gridtolerance="10"
     guidetolerance="10"
     inkscape:pageopacity="0"
     inkscape:pageshadow="2"
     inkscape:window-width="1920"
     inkscape:window-height="1017"
     id="namedview8"
     showgrid="false"
     showborder="true"
     fit-margin-top="0"
     fit-margin-left="0"
     fit-margin-right="0"
     fit-margin-bottom="0"
     inkscape:zoom="35.416667"
     inkscape:cx="10.0455"
     inkscape:cy="10.0455"
     inkscape:window-x="1358"
     inkscape:window-y="-8"
     inkscape:window-maximized="1"
     inkscape:current-layer="svg6" />
  <path
     d="m -1.9545,-1.9545 h 24 v 24 h -24 z"
     fill="none"
     id="path2" />
  <path
     d="m 2.985,0.0455 c -1.622604,0 -2.9395,1.316896 -2.9395,2.9395 0,1.622604 1.316896,2.9395 2.9395,2.9395 1.622604,0 2.9395,-1.316896 2.9395,-2.9395 0,-1.622604 -1.316896,-2.9395 -2.9395,-2.9395 z m 0,0.88185 c 0.487957,0 0.88185,0.393893 0.88185,0.88185 0,0.487957 -0.393893,0.88185 -0.88185,0.88185 -0.487957,0 -0.88185,-0.393893 -0.88185,-0.88185 0,-0.487957 0.393893,-0.88185 0.88185,-0.88185 z m 0,4.17409 C 2.250125,5.10144 1.6004955,4.725184 1.2213,4.154921 1.23012,3.5699605 2.3971,3.249555 2.985,3.249555 c 0.5849605,0 1.7548815,0.3204055 1.7637,0.905366 C 4.3695045,4.725184 3.719875,5.10144 2.985,5.10144 Z"
     id="path4"
     style="fill:#ffffff;stroke:none;stroke-width:0.091;stroke-miterlimit:4;stroke-dasharray:none;stroke-opacity:1;fill-opacity:1" />
</svg>
