<?xml version="1.0" encoding="UTF-8" standalone="no"?>
<svg
   xmlns:dc="http://purl.org/dc/elements/1.1/"
   xmlns:cc="http://creativecommons.org/ns#"
   xmlns:rdf="http://www.w3.org/1999/02/22-rdf-syntax-ns#"
   xmlns:svg="http://www.w3.org/2000/svg"
   xmlns="http://www.w3.org/2000/svg"
   xmlns:sodipodi="http://sodipodi.sourceforge.net/DTD/sodipodi-0.dtd"
   xmlns:inkscape="http://www.inkscape.org/namespaces/inkscape"
   width="128.45146mm"
   height="57.027103mm"
   viewBox="0 0 128.45146 57.027103"
   version="1.1"
   id="svg2855"
   inkscape:version="1.0.1 (3bc2e813f5, 2020-09-07)"
   sodipodi:docname="form-background.svg">
  <defs
     id="defs2849">
    <clipPath
       clipPathUnits="userSpaceOnUse"
       id="clipPath946">
      <path
         d="M 33.025,139.551 V 51.157 H 466.974 V 209.836 C 210.127,18.157 75.757,99.419 33.025,139.551"
         id="path944" />
    </clipPath>
    <linearGradient
       x1="0"
       y1="0"
       x2="1"
       y2="0"
       gradientUnits="userSpaceOnUse"
       gradientTransform="matrix(0,-416.53293,-416.53293,0,252.66669,305.80243)"
       spreadMethod="pad"
       id="linearGradient958">
      <stop
         style="stop-opacity:1;stop-color:#f2cd00"
         offset="0"
         id="stop952" />
      <stop
         style="stop-opacity:1;stop-color:#f2cd00"
         offset="0.23108862"
         id="stop954" />
      <stop
         style="stop-opacity:1;stop-color:#ffffff"
         offset="1"
         id="stop956" />
    </linearGradient>
    <clipPath
       clipPathUnits="userSpaceOnUse"
       id="clipPath1180">
      <path
         d="M 33.025,101.299 V 51.157 H 466.974 V 210.383 C 309.344,201.293 237.501,34.788 33.025,101.299"
         id="path1178" />
    </clipPath>
    <linearGradient
       x1="0"
       y1="0"
       x2="1"
       y2="0"
       gradientUnits="userSpaceOnUse"
       gradientTransform="matrix(456.66669,0,0,-456.66669,20.3333,122.3717)"
       spreadMethod="pad"
       id="linearGradient1192">
      <stop
         style="stop-opacity:1;stop-color:#f2cd00"
         offset="0"
         id="stop1186" />
      <stop
         style="stop-opacity:1;stop-color:#f2cd00"
         offset="0.23108862"
         id="stop1188" />
      <stop
         style="stop-opacity:1;stop-color:#ff8300"
         offset="1"
         id="stop1190" />
    </linearGradient>
    <clipPath
       clipPathUnits="userSpaceOnUse"
       id="clipPath1202">
      <path
         d="M 33.025,69.989 V 51.157 H 466.974 V 200.614 C 309.344,190.706 237.501,4.275 33.025,69.989"
         id="path1200" />
    </clipPath>
    <linearGradient
       x1="0"
       y1="0"
       x2="1"
       y2="0"
       gradientUnits="userSpaceOnUse"
       gradientTransform="matrix(456.66669,0,0,-456.66669,-39.000034,117.5)"
       spreadMethod="pad"
       id="linearGradient1212">
      <stop
         style="stop-opacity:1;stop-color:#f2cd00"
         offset="0"
         id="stop1208" />
      <stop
         style="stop-opacity:1;stop-color:#ff8300"
         offset="1"
         id="stop1210" />
    </linearGradient>
    <clipPath
       clipPathUnits="userSpaceOnUse"
       id="clipPath1222">
      <path
         d="M 223.753,51.157 H 466.974 V 170.765 C 345.596,167.423 300.548,91.489 223.753,51.157"
         id="path1220" />
    </clipPath>
    <linearGradient
       x1="0"
       y1="0"
       x2="1"
       y2="0"
       gradientUnits="userSpaceOnUse"
       gradientTransform="matrix(456.66763,0,0,-456.66763,-34.333229,102.43971)"
       spreadMethod="pad"
       id="linearGradient1232">
      <stop
         style="stop-opacity:1;stop-color:#f2cd00"
         offset="0"
         id="stop1228" />
      <stop
         style="stop-opacity:1;stop-color:#ff6d00"
         offset="1"
         id="stop1230" />
    </linearGradient>
    <clipPath
       clipPathUnits="userSpaceOnUse"
       id="clipPath1242">
      <path
         d="M 33.025,51.157 H 466.973 V 236.212 H 33.025 Z"
         id="path1240" />
    </clipPath>
    <clipPath
       clipPathUnits="userSpaceOnUse"
       id="clipPath1250">
      <path
         d="M 289.228,129.025 H 477 V 34 H 289.228 Z"
         id="path1248" />
    </clipPath>
    <clipPath
       clipPathUnits="userSpaceOnUse"
       id="clipPath1254">
      <path
         d="M 477,129.024 C 388.593,120.896 342.847,72.353 289.228,34 H 477 Z"
         id="path1252" />
    </clipPath>
    <linearGradient
       x1="0"
       y1="0"
       x2="1"
       y2="0"
       gradientUnits="userSpaceOnUse"
       gradientTransform="matrix(456.66714,0,0,-456.66714,-6.3326387,81.512253)"
       spreadMethod="pad"
       id="linearGradient1260">
      <stop
         style="stop-opacity:1;stop-color:#f2cd00"
         offset="0"
         id="stop1256" />
      <stop
         style="stop-opacity:1;stop-color:#ff6d00"
         offset="1"
         id="stop1258" />
    </linearGradient>
  </defs>
  <sodipodi:namedview
     id="base"
     pagecolor="#ffffff"
     bordercolor="#666666"
     borderopacity="1.0"
     inkscape:pageopacity="0.0"
     inkscape:pageshadow="2"
     inkscape:zoom="1.9458748"
     inkscape:cx="242.74292"
     inkscape:cy="107.76775"
     inkscape:document-units="mm"
     inkscape:current-layer="layer1"
     inkscape:document-rotation="0"
     showgrid="false"
     inkscape:window-width="1920"
     inkscape:window-height="1017"
     inkscape:window-x="1272"
     inkscape:window-y="-8"
     inkscape:window-maximized="1"
     fit-margin-top="0"
     fit-margin-left="0"
     fit-margin-right="0"
     fit-margin-bottom="0" />
  <metadata
     id="metadata2852">
    <rdf:RDF>
      <cc:Work
         rdf:about="">
        <dc:format>image/svg+xml</dc:format>
        <dc:type
           rdf:resource="http://purl.org/dc/dcmitype/StillImage" />
        <dc:title></dc:title>
      </cc:Work>
    </rdf:RDF>
  </metadata>
  <g
     inkscape:label="Layer 1"
     inkscape:groupmode="layer"
     id="layer1"
     transform="translate(-459.07313,-93.833728)">
    <g
       id="g3651">
      <g
         id="g940"
         transform="matrix(0.2960059,0,0,-0.35815195,449.29754,169.18281)"
         style="opacity:0.05;mix-blend-mode:normal;fill:#000000;fill-opacity:0.25">
        <g
           id="g942"
           clip-path="url(#clipPath946)"
           style="fill:#000000;fill-opacity:0.25">
          <g
             id="g948"
             style="fill:#000000;fill-opacity:0.25">
            <g
               id="g950"
               style="fill:#000000;fill-opacity:0.25">
              <path
                 d="M 33.025,139.551 V 51.157 H 466.974 V 209.836 C 210.127,18.157 75.757,99.419 33.025,139.551"
                 style="fill:#000000;fill-opacity:0.25;stroke:none"
                 id="path960" />
            </g>
          </g>
        </g>
      </g>
      <g
         id="g1174"
         transform="matrix(0.2960059,0,0,-0.35815195,449.29754,169.18281)"
         style="opacity:0.05;mix-blend-mode:normal;fill:#000000;fill-opacity:0.25">
        <g
           id="g1176"
           clip-path="url(#clipPath1180)"
           style="fill:#000000;fill-opacity:0.25">
          <g
             id="g1182"
             style="fill:#000000;fill-opacity:0.25">
            <g
               id="g1184"
               style="fill:#000000;fill-opacity:0.25">
              <path
                 d="M 33.025,101.299 V 51.157 H 466.974 V 210.383 C 309.344,201.293 237.501,34.788 33.025,101.299"
                 style="fill:#000000;fill-opacity:0.25;stroke:none"
                 id="path1194" />
            </g>
          </g>
        </g>
      </g>
      <g
         id="g1196"
         transform="matrix(0.2960059,0,0,-0.35815195,449.29754,169.18281)"
         style="opacity:0.05;mix-blend-mode:normal;fill:#000000;fill-opacity:0.25">
        <g
           id="g1198"
           clip-path="url(#clipPath1202)"
           style="fill:#000000;fill-opacity:0.25">
          <g
             id="g1204"
             style="fill:#000000;fill-opacity:0.25">
            <g
               id="g1206"
               style="fill:#000000;fill-opacity:0.25">
              <path
                 d="M 33.025,69.989 V 51.157 H 466.974 V 200.614 C 309.344,190.706 237.501,4.275 33.025,69.989"
                 style="fill:#000000;fill-opacity:0.25;stroke:none"
                 id="path1214" />
            </g>
          </g>
        </g>
      </g>
      <g
         id="g1216"
         transform="matrix(0.2960059,0,0,-0.35815195,449.29754,169.18281)"
         style="opacity:0.05;mix-blend-mode:normal;fill:#000000;fill-opacity:0.25">
        <g
           id="g1218"
           clip-path="url(#clipPath1222)"
           style="fill:#000000;fill-opacity:0.25">
          <g
             id="g1224"
             style="fill:#000000;fill-opacity:0.25">
            <g
               id="g1226"
               style="fill:#000000;fill-opacity:0.25">
              <path
                 d="M 223.753,51.157 H 466.974 V 170.765 C 345.596,167.423 300.548,91.489 223.753,51.157"
                 style="fill:#000000;fill-opacity:0.25;stroke:none"
                 id="path1234" />
            </g>
          </g>
        </g>
      </g>
      <g
         id="g1236"
         transform="matrix(0.2960059,0,0,-0.35815195,449.29754,169.18281)"
         style="opacity:0.05;mix-blend-mode:normal;fill:#000000;fill-opacity:0.25">
        <g
           id="g1238"
           clip-path="url(#clipPath1242)"
           style="fill:#000000;fill-opacity:0.25">
          <g
             id="g1244"
             style="fill:#000000;fill-opacity:0.25">
            <g
               id="g1246"
               style="fill:#000000;fill-opacity:0.25" />
            <g
               id="g1274"
               style="fill:#000000;fill-opacity:0.25">
              <g
                 clip-path="url(#clipPath1250)"
                 opacity="0.5"
                 id="g1272"
                 style="fill:#000000;fill-opacity:0.25">
                <g
                   id="g1270"
                   style="fill:#000000;fill-opacity:0.25">
                  <g
                     clip-path="url(#clipPath1254)"
                     id="g1268"
                     style="fill:#000000;fill-opacity:0.25">
                    <g
                       id="g1266"
                       style="fill:#000000;fill-opacity:0.25">
                      <g
                         id="g1264"
                         style="fill:#000000;fill-opacity:0.25">
                        <path
                           d="M 477,129.024 C 388.593,120.896 342.847,72.353 289.228,34 H 477 Z"
                           style="fill:#000000;fill-opacity:0.25;stroke:none"
                           id="path1262" />
                      </g>
                    </g>
                  </g>
                </g>
              </g>
            </g>
          </g>
          <g
             id="g1276"
             transform="translate(318.5996,49.792)"
             style="fill:#000000;fill-opacity:0.25">
            <path
               d="m 0,0 c -46.096,0 -88.721,5.325 -126.838,15.856 -79.585,21.988 -138.533,66.553 -170.472,128.88 l 0.445,0.229 C -264.992,82.766 -206.151,38.287 -126.705,16.338 -86.272,5.167 -40.745,-0.139 8.61,0.562 59.532,1.285 114.603,8.418 172.293,21.761 l 0.113,-0.487 C 114.681,7.923 59.574,0.785 8.618,0.062 5.735,0.021 2.856,0 0,0"
               style="fill:#000000;fill-opacity:0.25;fill-rule:nonzero;stroke:none"
               id="path1278" />
          </g>
          <g
             id="g1280"
             transform="translate(300.4268,56.8828)"
             style="fill:#000000;fill-opacity:0.25">
            <path
               d="m 0,0 c -36.197,0 -69.854,3.411 -100.821,10.243 -77.294,17.052 -138.143,55.443 -180.856,114.104 l 0.385,0.281 c 42.644,-58.565 103.397,-96.893 180.573,-113.919 80.003,-17.65 178.021,-12.448 291.33,15.464 l 0.114,-0.463 C 121.191,8.581 57.404,0 0,0"
               style="fill:#000000;fill-opacity:0.25;fill-rule:nonzero;stroke:none"
               id="path1282" />
          </g>
          <g
             id="g1284"
             transform="translate(281.3076,62.9336)"
             style="fill:#000000;fill-opacity:0.25">
            <path
               d="m 0,0 c -26.11,0 -50.681,1.895 -73.859,5.671 -75.2,12.253 -137.754,44.745 -191.238,99.333 l 0.324,0.318 C -211.359,50.806 -148.886,18.356 -73.786,6.119 3.476,-6.47 96.261,1.874 209.875,31.626 l 0.115,-0.439 C 130.387,10.341 60.997,0 0,0"
               style="fill:#000000;fill-opacity:0.25;fill-rule:nonzero;stroke:none"
               id="path1286" />
          </g>
          <g
             id="g1288"
             transform="translate(261.1719,67.8027)"
             style="fill:#000000;fill-opacity:0.25">
            <path
               d="m 0,0 c -15.92,0 -31.176,0.765 -45.88,2.281 -37.747,3.893 -72.358,12.684 -105.81,26.875 -32.496,13.786 -63.836,32.658 -95.812,57.696 l 0.267,0.339 C -215.29,62.178 -183.981,43.324 -151.522,29.554 -118.109,15.38 -83.54,6.599 -45.835,2.71 27.849,-4.885 115.546,6.407 230.156,38.26 l 0.115,-0.416 C 138.473,12.331 63.92,0 0,0"
               style="fill:#000000;fill-opacity:0.25;fill-rule:nonzero;stroke:none"
               id="path1290" />
          </g>
          <g
             id="g1292"
             transform="translate(241.3813,71.1924)"
             style="fill:#000000;fill-opacity:0.25">
            <path
               d="m 0,0 c -6.172,0 -12.246,0.125 -18.247,0.371 -72.604,2.983 -137.989,24.514 -212.008,69.814 l 0.214,0.349 C -156.085,25.271 -90.761,3.759 -18.23,0.78 51.605,-2.086 131.845,11.548 250.092,46.374 l 0.116,-0.393 C 142.074,14.134 65.696,0 0,0"
               style="fill:#000000;fill-opacity:0.25;fill-rule:nonzero;stroke:none"
               id="path1294" />
          </g>
          <g
             id="g1296"
             transform="translate(220.9404,72.9268)"
             style="fill:#000000;fill-opacity:0.25">
            <path
               d="m 0,0 c -68.655,0 -132.823,16.755 -212.361,55.179 l 0.168,0.347 C -128.856,15.267 -62.403,-1.208 10.026,0.505 83.977,2.232 164.587,23.075 270.68,56.143 l 0.115,-0.37 C 164.67,22.696 84.031,1.848 10.036,0.118 6.682,0.04 3.331,0 0,0"
               style="fill:#000000;fill-opacity:0.25;fill-rule:nonzero;stroke:none"
               id="path1298" />
          </g>
          <g
             id="g1300"
             transform="translate(200.7515,72.7715)"
             style="fill:#000000;fill-opacity:0.25">
            <path
               d="m 0,0 c -23.277,0 -46.242,2.029 -70.294,6.146 -37.158,6.361 -77.858,18.11 -124.429,35.918 l 0.13,0.34 c 46.548,-17.8 87.226,-29.543 124.36,-35.899 36.965,-6.328 71.366,-7.721 108.265,-4.388 70.301,6.352 141.931,29.098 252.983,65.685 l 0.113,-0.346 C 180.053,30.861 108.405,8.109 38.065,1.755 25.145,0.588 12.525,0 0,0"
               style="fill:#000000;fill-opacity:0.25;fill-rule:nonzero;stroke:none"
               id="path1302" />
          </g>
          <g
             id="g1304"
             transform="translate(180.8823,70.6865)"
             style="fill:#000000;fill-opacity:0.25">
            <path
               d="m 0,0 c -50.606,0 -105.996,9.346 -177.407,30.884 l 0.098,0.326 C 9.903,-25.255 87.097,2.116 256.233,62.089 c 17.42,6.178 35.434,12.564 54.798,19.301 l 0.111,-0.323 C 291.78,74.332 273.767,67.944 256.346,61.768 151.646,24.643 82.141,0 0,0"
               style="fill:#000000;fill-opacity:0.25;fill-rule:nonzero;stroke:none"
               id="path1306" />
          </g>
          <g
             id="g1308"
             transform="translate(159.9307,66.6396)"
             style="fill:#000000;fill-opacity:0.25">
            <path
               d="m 0,0 c -11.981,0 -24.232,0.479 -36.852,1.434 -35.887,2.715 -75.846,9.334 -122.161,20.232 l 0.074,0.311 c 46.297,-10.896 86.24,-17.512 122.111,-20.226 33.927,-2.567 65.21,-1.689 95.641,2.681 58.678,8.428 111.843,29.513 179.154,56.208 27.659,10.968 59.008,23.401 94.162,36.3 l 0.109,-0.298 C 297.089,83.743 265.741,71.312 238.084,60.344 170.754,33.642 117.573,12.551 58.857,4.117 39.725,1.368 20.251,0 0,0"
               style="fill:#000000;fill-opacity:0.25;fill-rule:nonzero;stroke:none"
               id="path1310" />
          </g>
          <g
             id="g1312"
             transform="translate(137.7534,60.6738)"
             style="fill:#000000;fill-opacity:0.25">
            <path
               d="m 0,0 c -39.027,0 -84.133,4.424 -139.395,14.369 l 0.053,0.291 c 191.087,-34.39 260.92,-2.745 376.614,49.685 33.495,15.178 71.46,32.383 117.181,50.064 l 0.107,-0.275 C 308.846,96.455 270.885,79.253 237.393,64.075 155.105,26.785 95.986,0 0,0"
               style="fill:#000000;fill-opacity:0.25;fill-rule:nonzero;stroke:none"
               id="path1314" />
          </g>
          <g
             id="g1316"
             transform="translate(112.8896,53.043)"
             style="fill:#000000;fill-opacity:0.25">
            <path
               d="m 0,0 c -34.581,0 -72.998,2.87 -117.093,8.737 l 0.036,0.27 c 47.9,-6.373 89.097,-9.203 125.955,-8.669 33.983,0.497 64.429,3.894 93.076,10.388 54.43,12.336 97.616,34.897 147.621,61.021 36.251,18.939 77.338,40.403 129.869,61.797 l 0.103,-0.252 C 327.048,111.903 285.966,90.44 249.721,71.505 199.699,45.373 156.5,22.805 102.034,10.46 73.368,3.963 42.905,0.562 8.902,0.065 5.964,0.022 2.995,0 0,0"
               style="fill:#000000;fill-opacity:0.25;fill-rule:nonzero;stroke:none"
               id="path1318" />
          </g>
          <g
             id="g1320"
             transform="translate(85.4473,43.834)"
             style="fill:#000000;fill-opacity:0.25">
            <path
               d="m 0,0 c -27.996,0 -58.474,1.555 -92.214,4.685 l 0.024,0.248 C -42.674,0.341 -0.173,-0.858 37.739,1.27 c 34.657,1.945 65.372,6.692 93.9,14.514 53.912,14.781 93.571,38.698 139.493,66.393 37.143,22.399 79.243,47.789 135.923,72.08 l 0.097,-0.231 C 350.489,129.742 308.397,104.358 271.261,81.962 225.323,54.259 185.649,30.333 131.705,15.543 103.16,7.717 72.428,2.966 37.753,1.02 25.663,0.341 13.101,0 0,0"
               style="fill:#000000;fill-opacity:0.25;fill-rule:nonzero;stroke:none"
               id="path1322" />
          </g>
        </g>
      </g>
    </g>
  </g>
</svg>
