<?xml version="1.0" encoding="UTF-8" standalone="no"?>
<svg
   xmlns:dc="http://purl.org/dc/elements/1.1/"
   xmlns:cc="http://creativecommons.org/ns#"
   xmlns:rdf="http://www.w3.org/1999/02/22-rdf-syntax-ns#"
   xmlns:svg="http://www.w3.org/2000/svg"
   xmlns="http://www.w3.org/2000/svg"
   xmlns:sodipodi="http://sodipodi.sourceforge.net/DTD/sodipodi-0.dtd"
   xmlns:inkscape="http://www.inkscape.org/namespaces/inkscape"
   height="20"
   version="1.1"
   width="20"
   id="svg14"
   sodipodi:docname="pin.svg"
   inkscape:version="1.0.1 (3bc2e813f5, 2020-09-07)">
  <metadata
     id="metadata20">
    <rdf:RDF>
      <cc:Work
         rdf:about="">
        <dc:format>image/svg+xml</dc:format>
        <dc:type
           rdf:resource="http://purl.org/dc/dcmitype/StillImage" />
        <dc:title></dc:title>
      </cc:Work>
    </rdf:RDF>
  </metadata>
  <defs
     id="defs18" />
  <sodipodi:namedview
     pagecolor="#ffffff"
     bordercolor="#666666"
     borderopacity="1"
     objecttolerance="10"
     gridtolerance="10"
     guidetolerance="10"
     inkscape:pageopacity="0"
     inkscape:pageshadow="2"
     inkscape:window-width="1920"
     inkscape:window-height="1017"
     id="namedview16"
     showgrid="false"
     fit-margin-top="0"
     fit-margin-left="0"
     fit-margin-right="0"
     fit-margin-bottom="0"
     inkscape:zoom="8.8541667"
     inkscape:cx="-29.448689"
     inkscape:cy="9.6715487"
     inkscape:window-x="1272"
     inkscape:window-y="-8"
     inkscape:window-maximized="1"
     inkscape:current-layer="svg14" />
  <g
     transform="matrix(0.99134774,0,0,0.9913408,-2.6864195,-1020.5716)"
     id="g12">
    <g
       transform="matrix(0.70711,0.70711,-0.70711,0.70711,737.68,297.72)"
       id="g10">
      <path
         d="m 11,1028.4 v 13 h 1 6.406 c -0.595,-1.1 -1.416,-2.1 -2.406,-2.8 v -8 c 0.616,-0.6 1.131,-1.4 1.531,-2.2 H 12 Z"
         fill="#c0392b"
         id="path2" />
      <path
         d="m 11,13 v 2 4 2 l 1,2 v -2 -6 -2 z"
         fill="#bdc3c7"
         transform="translate(0,1028.4)"
         id="path4" />
      <path
         d="m 12,13 v 2 4 2 2 l 1,-2 v -2 -4 -2 z"
         fill="#7f8c8d"
         transform="translate(0,1028.4)"
         id="path6" />
      <path
         d="m 6.4688,1028.4 c 0.4006,0.8 0.915,1.6 1.5312,2.2 v 8 c -0.9897,0.7 -1.8113,1.7 -2.4062,2.8 H 12 v -13 z"
         fill="#e74c3c"
         id="path8" />
    </g>
  </g>
</svg>
