<?xml version="1.0" encoding="UTF-8" standalone="no"?>
<svg
   xmlns:dc="http://purl.org/dc/elements/1.1/"
   xmlns:cc="http://creativecommons.org/ns#"
   xmlns:rdf="http://www.w3.org/1999/02/22-rdf-syntax-ns#"
   xmlns:svg="http://www.w3.org/2000/svg"
   xmlns="http://www.w3.org/2000/svg"
   xmlns:sodipodi="http://sodipodi.sourceforge.net/DTD/sodipodi-0.dtd"
   xmlns:inkscape="http://www.inkscape.org/namespaces/inkscape"
   enable-background="new 0 0 24 24"
   height="20"
   id="Layer_1"
   version="1.1"
   viewBox="0 0 20 20"
   width="20"
   xml:space="preserve"
   sodipodi:docname="red.svg"
   inkscape:version="1.0.1 (3bc2e813f5, 2020-09-07)"><metadata
     id="metadata9"><rdf:RDF><cc:Work
         rdf:about=""><dc:format>image/svg+xml</dc:format><dc:type
           rdf:resource="http://purl.org/dc/dcmitype/StillImage" /><dc:title></dc:title></cc:Work></rdf:RDF></metadata><defs
     id="defs7" /><sodipodi:namedview
     pagecolor="#ffffff"
     bordercolor="#666666"
     borderopacity="1"
     objecttolerance="10"
     gridtolerance="10"
     guidetolerance="10"
     inkscape:pageopacity="0"
     inkscape:pageshadow="2"
     inkscape:window-width="1920"
     inkscape:window-height="1017"
     id="namedview5"
     showgrid="false"
     fit-margin-top="0"
     fit-margin-left="0"
     fit-margin-right="0"
     fit-margin-bottom="0"
     inkscape:zoom="12.521683"
     inkscape:cx="33.933441"
     inkscape:cy="20.47668"
     inkscape:window-x="1272"
     inkscape:window-y="-8"
     inkscape:window-maximized="1"
     inkscape:current-layer="Layer_1" /><circle
     style="fill:#ff0000;fill-rule:evenodd;stroke-width:0.775337"
     id="path834"
     cx="10"
     cy="10"
     r="10" /><path
     d="M 18.156799,9.2584731 H 16.599592 C 16.451286,7.9978769 15.932217,6.8114334 15.19069,5.847448 l 1.112291,-1.1122908 c 0.296611,-0.2966109 0.296611,-0.7415271 0,-1.0381381 -0.296611,-0.2966108 -0.741527,-0.2966108 -1.038138,0 L 14.152552,4.8093099 C 13.188567,4.0677827 12.002124,3.5487137 10.741527,3.4004083 V 1.8432012 C 10.741527,1.3982849 10.444915,1.101674 10,1.101674 c -0.4449168,0 -0.7415278,0.2966109 -0.7415278,0.7415272 v 1.5572071 c -1.260595,0.1483054 -2.44704,0.5932218 -3.411024,1.4089016 L 4.7351562,3.6970191 c -0.296611,-0.2966108 -0.741526,-0.2966108 -1.038137,0 -0.296611,0.296611 -0.296611,0.7415272 0,1.0381381 l 1.11229,1.1122908 c -0.741527,0.9639854 -1.260596,2.1504289 -1.408901,3.4110251 h -1.557207 c -0.444917,0 -0.741527,0.2966109 -0.741527,0.7415269 0,0.444917 0.29661,0.741528 0.741527,0.741528 h 1.557207 c 0.148305,1.260596 0.667374,2.447039 1.408901,3.411025 l -1.11229,1.11229 c -0.296611,0.296611 -0.296611,0.741527 0,1.038138 0.296611,0.296612 0.741526,0.296612 1.038137,0 l 1.112292,-1.112291 c 0.963984,0.741528 2.150429,1.260597 3.411024,1.408903 v 1.557206 c 0,0.444917 0.296611,0.741527 0.7415278,0.741527 0.444915,0 0.741527,-0.29661 0.741527,-0.741527 v -1.557206 c 1.260597,-0.148306 2.44704,-0.667375 3.411025,-1.408903 l 1.112291,1.112291 c 0.296611,0.296612 0.741527,0.296612 1.038138,0 0.296611,-0.296611 0.296611,-0.741527 0,-1.038138 l -1.112291,-1.11229 c 0.741527,-0.963986 1.260596,-2.150429 1.408902,-3.411025 h 1.557207 c 0.444916,0 0.741527,-0.296611 0.741527,-0.741528 0,-0.444916 -0.296611,-0.7415269 -0.741527,-0.7415269 z m -3.040262,0 H 12.817803 C 12.74365,8.9618623 12.669498,8.7394041 12.521192,8.5169459 l 1.63136,-1.6313598 c 0.519069,0.6673745 0.889833,1.4830544 0.963985,2.372887 z m -2.966108,1.1122909 c 0,0.148305 -0.07415,0.222458 -0.07415,0.370764 0,0.07415 -0.07415,0.148305 -0.07415,0.222458 -0.222458,0.444916 -0.593222,0.81568 -1.038139,1.038138 -0.07415,0 -0.148305,0.07415 -0.222458,0.07415 -0.148306,0.07415 -0.222458,0.07415 -0.370764,0.07415 -0.07416,0.07415 -0.222457,0.07415 -0.3707628,0.07415 -0.148305,0 -0.296611,0 -0.370763,-0.07415 -0.148306,0 -0.222459,-0.07415 -0.370764,-0.07415 -0.07416,0 -0.148306,-0.07415 -0.222459,-0.07415 v 0 c -0.444916,-0.222458 -0.815679,-0.593222 -1.038137,-1.038138 0,-0.07415 -0.07415,-0.148306 -0.07415,-0.222458 -0.07415,-0.148306 -0.07415,-0.222459 -0.07415,-0.370764 -0.07416,-0.07415 -0.07416,-0.222458 -0.07416,-0.370764 0,-0.1483052 0,-0.2966106 0.07416,-0.3707634 0,-0.1483054 0.07415,-0.222458 0.07415,-0.3707635 0,-0.074153 0.07415,-0.1483054 0.07415,-0.2224581 0.222458,-0.4449163 0.593221,-0.8156799 1.038137,-1.0381381 0.07415,0 0.148306,-0.074153 0.222459,-0.074153 0.148305,-0.074153 0.222458,-0.074153 0.370764,-0.074153 0.07415,-0.074153 0.222458,-0.074153 0.370763,-0.074153 0.1483058,0 0.2966098,0 0.3707628,0.074153 0.148306,0 0.222458,0.074153 0.370764,0.074153 0.07415,0 0.148305,0.074153 0.222458,0.074153 0.444917,0.2224582 0.815681,0.5932218 1.038139,1.0381381 0,0.074153 0.07415,0.1483054 0.07415,0.2224581 0.07415,0.1483055 0.07415,0.2224581 0.07415,0.3707635 0,0.1483056 0.07415,0.2224582 0.07415,0.3707634 0,0.148306 0,0.296611 -0.07415,0.370764 z m 0.963985,-4.523316 -1.63136,1.6313599 C 11.260596,7.3305025 10.963985,7.2563497 10.741527,7.1821969 V 4.8834627 C 11.63136,4.9576157 12.44704,5.328379 13.114414,5.847448 Z M 9.2584722,4.8834627 v 2.2987342 c -0.296611,0.074153 -0.519069,0.1483056 -0.741527,0.296611 L 6.8855852,5.847448 c 0.667375,-0.519069 1.483054,-0.8898326 2.372887,-0.9639853 z m -3.411024,2.0021234 1.631359,1.6313598 C 7.3305022,8.7394041 7.2563492,9.036015 7.1821962,9.2584731 h -2.298734 c 0.07416,-0.8898326 0.444916,-1.7055125 0.963986,-2.372887 z m -0.963986,3.8559419 h 2.298734 c 0.07416,0.29661 0.148306,0.519069 0.296611,0.741527 l -1.631359,1.631359 C 5.3283782,12.44704 4.9576142,11.63136 4.8834622,10.741528 Z m 2.002123,3.411025 1.63136,-1.63136 c 0.222458,0.148305 0.519069,0.222458 0.741527,0.296611 v 2.298734 c -0.889833,-0.07415 -1.705512,-0.444917 -2.372887,-0.963985 z m 3.8559418,0.963985 v -2.298734 c 0.296611,-0.07415 0.519069,-0.148306 0.741527,-0.296611 l 1.63136,1.63136 c -0.667374,0.519068 -1.483054,0.889832 -2.372887,0.963985 z m 3.411025,-2.002124 -1.63136,-1.631359 c 0.148306,-0.222458 0.222458,-0.519069 0.296611,-0.741527 h 2.298734 c -0.07415,0.889832 -0.444916,1.705512 -0.963985,2.372886 z"
     id="path2"
     style="fill:#ffffff;fill-opacity:1;stroke:#000000;stroke-width:0.0741528;stroke-miterlimit:4;stroke-dasharray:none;stroke-opacity:1" /></svg>
