<?xml version="1.0" encoding="UTF-8" standalone="no"?>
<svg
   xmlns:dc="http://purl.org/dc/elements/1.1/"
   xmlns:cc="http://creativecommons.org/ns#"
   xmlns:rdf="http://www.w3.org/1999/02/22-rdf-syntax-ns#"
   xmlns:svg="http://www.w3.org/2000/svg"
   xmlns="http://www.w3.org/2000/svg"
   xmlns:sodipodi="http://sodipodi.sourceforge.net/DTD/sodipodi-0.dtd"
   xmlns:inkscape="http://www.inkscape.org/namespaces/inkscape"
   enable-background="new 0 0 24 24"
   height="20"
   id="Layer_1"
   version="1.1"
   viewBox="0 0 20 20"
   width="20"
   xml:space="preserve"
   sodipodi:docname="red.svg"
   inkscape:version="1.0.1 (3bc2e813f5, 2020-09-07)"><metadata
     id="metadata9"><rdf:RDF><cc:Work
         rdf:about=""><dc:format>image/svg+xml</dc:format><dc:type
           rdf:resource="http://purl.org/dc/dcmitype/StillImage" /><dc:title /></cc:Work></rdf:RDF></metadata><defs
     id="defs7" /><sodipodi:namedview
     pagecolor="#ffffff"
     bordercolor="#666666"
     borderopacity="1"
     objecttolerance="10"
     gridtolerance="10"
     guidetolerance="10"
     inkscape:pageopacity="0"
     inkscape:pageshadow="2"
     inkscape:window-width="1920"
     inkscape:window-height="1017"
     id="namedview5"
     showgrid="false"
     fit-margin-top="0"
     fit-margin-left="0"
     fit-margin-right="0"
     fit-margin-bottom="0"
     inkscape:zoom="12.521683"
     inkscape:cx="33.933441"
     inkscape:cy="20.47668"
     inkscape:window-x="1272"
     inkscape:window-y="-8"
     inkscape:window-maximized="1"
     inkscape:current-layer="Layer_1"
     inkscape:document-rotation="0" /><circle
     style="fill:#ff0000;fill-rule:evenodd;stroke-width:0.775337"
     id="path834"
     cx="10"
     cy="9.8402767"
     r="10" /><circle
     style="fill:#f5f5f5;fill-rule:evenodd;stroke-width:0.919355"
     id="path1401"
     cx="10"
     cy="9.8402767"
     r="9.104208" /><path
     d="m 17.575704,9.1515765 h -1.44627 C 15.991693,7.9807858 15.509603,6.8788651 14.820903,5.9835545 l 1.033051,-1.0330506 c 0.27548,-0.2754802 0.27548,-0.6887003 0,-0.9641807 -0.275481,-0.27548 -0.688701,-0.27548 -0.964181,0 L 13.856722,5.0193739 C 12.961412,4.3306734 11.859492,3.8485832 10.6887,3.7108432 V 2.2645723 c 0,-0.4132203 -0.275481,-0.6887005 -0.6887001,-0.6887005 -0.4132207,0 -0.688701,0.2754802 -0.688701,0.6887005 V 3.7108432 C 8.1405093,3.8485832 7.0385872,4.2618036 6.1432779,5.0193739 L 5.1102261,3.9863232 c -0.2754802,-0.27548 -0.6886992,-0.27548 -0.9641796,0 -0.2754802,0.2754804 -0.2754802,0.6887005 0,0.9641807 L 5.1790964,5.9835545 C 4.4903962,6.8788651 4.0083059,7.9807858 3.8705663,9.1515765 H 2.4242955 c -0.4132209,0 -0.6887003,0.2754802 -0.6887003,0.6887002 0,0.4132213 0.2754794,0.6887013 0.6887003,0.6887013 h 1.4462708 c 0.1377396,1.170791 0.6198299,2.272711 1.3085301,3.168022 l -1.0330499,1.03305 c -0.2754802,0.27548 -0.2754802,0.6887 0,0.964181 0.2754804,0.275481 0.6886994,0.275481 0.9641796,0 L 6.1432779,14.66118 c 0.8953093,0.688701 1.9972314,1.170791 3.168021,1.308532 v 1.446269 c 0,0.413222 0.2754803,0.688701 0.688701,0.688701 0.4132191,0 0.6887001,-0.275479 0.6887001,-0.688701 v -1.446269 c 1.170792,-0.137741 2.272712,-0.619831 3.168022,-1.308532 l 1.033051,1.033051 c 0.27548,0.275481 0.6887,0.275481 0.964181,0 0.27548,-0.275481 0.27548,-0.688701 0,-0.964181 L 14.820903,13.697 c 0.6887,-0.895311 1.17079,-1.997231 1.308531,-3.168022 h 1.44627 c 0.413221,0 0.688701,-0.27548 0.688701,-0.6887013 0,-0.41322 -0.27548,-0.6887002 -0.688701,-0.6887002 z m -2.823672,0 H 12.617061 C 12.548191,8.8760964 12.479322,8.6694862 12.341581,8.4628761 l 1.515141,-1.5151409 c 0.482091,0.6198304 0.826441,1.3774008 0.89531,2.2038413 z m -2.754801,1.0330515 c 0,0.137739 -0.06887,0.20661 -0.06887,0.34435 0,0.06887 -0.06887,0.13774 -0.06887,0.206611 -0.20661,0.413219 -0.550961,0.75757 -0.964181,0.96418 -0.06887,0 -0.13774,0.06887 -0.20661,0.06887 -0.137741,0.06887 -0.20661,0.06887 -0.344351,0.06887 -0.06888,0.06887 -0.206609,0.06887 -0.3443491,0.06887 -0.13774,0 -0.2754806,0 -0.34435,-0.06887 -0.1377406,0 -0.2066109,-0.06887 -0.3443506,-0.06887 -0.068877,0 -0.1377406,-0.06887 -0.2066109,-0.06887 v 0 c -0.4132178,-0.20661 -0.7575674,-0.550961 -0.9641775,-0.96418 0,-0.06887 -0.068867,-0.137742 -0.068867,-0.206611 -0.068865,-0.13774 -0.068865,-0.206611 -0.068865,-0.34435 -0.068877,-0.06887 -0.068877,-0.2066113 -0.068877,-0.3443513 0,-0.1377399 0,-0.2754799 0.068877,-0.34435 0,-0.1377401 0.068867,-0.2066101 0.068867,-0.3443502 0,-0.068871 0.068867,-0.13774 0.068867,-0.20661 0.2066101,-0.4132203 0.5509597,-0.7575706 0.9641797,-0.9641807 0.068867,0 0.1377406,-0.068871 0.2066109,-0.068871 0.1377396,-0.068871 0.2066099,-0.068871 0.3443505,-0.068871 0.068867,-0.068871 0.2066101,-0.068871 0.3443498,-0.068871 0.137741,0 0.275479,0 0.344349,0.068871 0.137741,0 0.20661,0.068871 0.344351,0.068871 0.06887,0 0.137739,0.068871 0.20661,0.068871 0.41322,0.2066101 0.757571,0.5509604 0.964181,0.9641807 0,0.068871 0.06887,0.13774 0.06887,0.20661 0.06887,0.1377401 0.06887,0.2066101 0.06887,0.3443502 0,0.1377401 0.06887,0.2066101 0.06887,0.34435 0,0.13774 0,0.2754803 -0.06887,0.3443513 z M 12.892542,5.9835545 11.377401,7.4986956 C 11.170791,7.3609555 10.895311,7.2920854 10.6887,7.2232152 V 5.088244 c 0.826441,0.068871 1.584011,0.4132203 2.203842,0.8953105 z M 9.3112989,5.088244 V 7.2232152 C 9.0358186,7.2920855 8.8292086,7.3609555 8.6225986,7.4986956 L 7.1074575,5.9835545 C 7.7272884,5.5014643 8.484858,5.1571141 9.3112989,5.088244 Z M 6.1432779,6.9477352 7.6584181,8.4628761 C 7.5206784,8.6694862 7.4518081,8.9449665 7.3829378,9.1515765 H 5.2479668 C 5.3168436,8.325136 5.6611867,7.5675656 6.1432779,6.9477352 Z M 5.2479668,10.528978 h 2.134971 c 0.068877,0.275479 0.1377406,0.48209 0.2754803,0.688701 l -1.5151402,1.51514 C 5.6611867,12.112988 5.3168361,11.355418 5.2479668,10.528978 Z M 7.1074575,13.697 8.6225986,12.181859 c 0.20661,0.13774 0.4820903,0.20661 0.6887003,0.27548 V 14.59231 C 8.484858,14.52344 7.7272884,14.17909 7.1074575,13.697 Z M 10.6887,14.59231 v -2.134971 c 0.27548,-0.06887 0.482091,-0.13774 0.688701,-0.27548 L 12.892542,13.697 c -0.619831,0.48209 -1.377401,0.82644 -2.203842,0.89531 z m 3.168022,-1.859491 -1.515141,-1.51514 c 0.137741,-0.206611 0.20661,-0.48209 0.27548,-0.688701 h 2.134971 c -0.06887,0.82644 -0.413219,1.58401 -0.89531,2.203841 z"
     id="path2"
     style="fill:#d92b2b;fill-opacity:1;stroke:none;stroke-width:0.0688701;stroke-miterlimit:4;stroke-dasharray:none;stroke-opacity:1" /></svg>
