<?xml version="1.0" encoding="UTF-8" standalone="no"?>
<svg
   xmlns:dc="http://purl.org/dc/elements/1.1/"
   xmlns:cc="http://creativecommons.org/ns#"
   xmlns:rdf="http://www.w3.org/1999/02/22-rdf-syntax-ns#"
   xmlns:svg="http://www.w3.org/2000/svg"
   xmlns="http://www.w3.org/2000/svg"
   xmlns:sodipodi="http://sodipodi.sourceforge.net/DTD/sodipodi-0.dtd"
   xmlns:inkscape="http://www.inkscape.org/namespaces/inkscape"
   version="1.1"
   id="Capa_1"
   x="0px"
   y="0px"
   viewBox="0 0 22.677166 18"
   xml:space="preserve"
   sodipodi:docname="cs-CZ.svg"
   width="22.677166"
   height="18"
   inkscape:version="1.0.1 (3bc2e813f5, 2020-09-07)"><metadata
   id="metadata43"><rdf:RDF><cc:Work
       rdf:about=""><dc:format>image/svg+xml</dc:format><dc:type
         rdf:resource="http://purl.org/dc/dcmitype/StillImage" /><dc:title></dc:title></cc:Work></rdf:RDF></metadata><defs
   id="defs41" /><sodipodi:namedview
   pagecolor="#ffffff"
   bordercolor="#666666"
   borderopacity="1"
   objecttolerance="10"
   gridtolerance="10"
   guidetolerance="10"
   inkscape:pageopacity="0"
   inkscape:pageshadow="2"
   inkscape:window-width="1920"
   inkscape:window-height="1017"
   id="namedview39"
   showgrid="false"
   fit-margin-top="0"
   fit-margin-left="0"
   fit-margin-right="0"
   fit-margin-bottom="0"
   inkscape:zoom="36.468403"
   inkscape:cx="11.338583"
   inkscape:cy="11.33858"
   inkscape:window-x="1358"
   inkscape:window-y="-8"
   inkscape:window-maximized="1"
   inkscape:current-layer="Capa_1"
   inkscape:document-rotation="0" />


<g
   id="g871"
   transform="matrix(3.7795276,0,0,4.5000967,0,-384.02474)"><rect
     y="85.336998"
     style="fill:#0052b4;stroke-width:0.0117188"
     width="6"
     height="3.9999139"
     id="rect2"
     x="0" /><polygon
     style="fill:#d80027"
     points="215.185,256 512,256 512,426.663 0,426.663 "
     id="polygon4"
     transform="matrix(0.01171875,0,0,0.01171875,0,84.336955)" /><polygon
     style="fill:#f0f0f0"
     points="0,85.337 512,85.337 512,256 215.185,256 "
     id="polygon6"
     transform="matrix(0.01171875,0,0,0.01171875,0,84.336955)" /></g>
<g
   id="g8"
   transform="matrix(0.01171875,0,0,0.01171875,0,-1.0000497)">
</g>
<g
   id="g10"
   transform="matrix(0.01171875,0,0,0.01171875,0,-1.0000497)">
</g>
<g
   id="g12"
   transform="matrix(0.01171875,0,0,0.01171875,0,-1.0000497)">
</g>
<g
   id="g14"
   transform="matrix(0.01171875,0,0,0.01171875,0,-1.0000497)">
</g>
<g
   id="g16"
   transform="matrix(0.01171875,0,0,0.01171875,0,-1.0000497)">
</g>
<g
   id="g18"
   transform="matrix(0.01171875,0,0,0.01171875,0,-1.0000497)">
</g>
<g
   id="g20"
   transform="matrix(0.01171875,0,0,0.01171875,0,-1.0000497)">
</g>
<g
   id="g22"
   transform="matrix(0.01171875,0,0,0.01171875,0,-1.0000497)">
</g>
<g
   id="g24"
   transform="matrix(0.01171875,0,0,0.01171875,0,-1.0000497)">
</g>
<g
   id="g26"
   transform="matrix(0.01171875,0,0,0.01171875,0,-1.0000497)">
</g>
<g
   id="g28"
   transform="matrix(0.01171875,0,0,0.01171875,0,-1.0000497)">
</g>
<g
   id="g30"
   transform="matrix(0.01171875,0,0,0.01171875,0,-1.0000497)">
</g>
<g
   id="g32"
   transform="matrix(0.01171875,0,0,0.01171875,0,-1.0000497)">
</g>
<g
   id="g34"
   transform="matrix(0.01171875,0,0,0.01171875,0,-1.0000497)">
</g>
<g
   id="g36"
   transform="matrix(0.01171875,0,0,0.01171875,0,-1.0000497)">
</g>
</svg>
