<?xml version="1.0" encoding="UTF-8" standalone="no"?>
<svg
   xmlns:dc="http://purl.org/dc/elements/1.1/"
   xmlns:cc="http://creativecommons.org/ns#"
   xmlns:rdf="http://www.w3.org/1999/02/22-rdf-syntax-ns#"
   xmlns:svg="http://www.w3.org/2000/svg"
   xmlns="http://www.w3.org/2000/svg"
   xmlns:sodipodi="http://sodipodi.sourceforge.net/DTD/sodipodi-0.dtd"
   xmlns:inkscape="http://www.inkscape.org/namespaces/inkscape"
   version="1.1"
   id="Layer_1"
   x="0px"
   y="0px"
   viewBox="0 0 22.677165 17.999999"
   xml:space="preserve"
   sodipodi:docname="de-DE.svg"
   width="22.677164"
   height="17.999998"
   inkscape:version="1.0.1 (3bc2e813f5, 2020-09-07)"><metadata
   id="metadata43"><rdf:RDF><cc:Work
       rdf:about=""><dc:format>image/svg+xml</dc:format><dc:type
         rdf:resource="http://purl.org/dc/dcmitype/StillImage" /><dc:title></dc:title></cc:Work></rdf:RDF></metadata><defs
   id="defs41" /><sodipodi:namedview
   pagecolor="#ffffff"
   bordercolor="#666666"
   borderopacity="1"
   objecttolerance="10"
   gridtolerance="10"
   guidetolerance="10"
   inkscape:pageopacity="0"
   inkscape:pageshadow="2"
   inkscape:window-width="1920"
   inkscape:window-height="1017"
   id="namedview39"
   showgrid="false"
   fit-margin-top="0"
   fit-margin-left="0"
   fit-margin-right="0"
   fit-margin-bottom="0"
   inkscape:zoom="36.468405"
   inkscape:cx="11.338582"
   inkscape:cy="11.338582"
   inkscape:window-x="1358"
   inkscape:window-y="-8"
   inkscape:window-maximized="1"
   inkscape:current-layer="Layer_1" />


<g
   id="g871"
   transform="matrix(0.04429125,0,0,0.05365942,0,-4.736839)"><path
     style="fill:#464655"
     d="M 512,200.093 H 0 V 97.104 c 0,-4.875 3.953,-8.828 8.828,-8.828 h 494.345 c 4.875,0 8.828,3.953 8.828,8.828 z"
     id="path2" /><path
     style="fill:#ffe15a"
     d="M 503.172,423.725 H 8.828 C 3.953,423.725 0,419.772 0,414.897 V 311.909 h 512 v 102.988 c 0,4.876 -3.953,8.828 -8.828,8.828 z"
     id="path4" /><rect
     y="200.091"
     style="fill:#ff4b55"
     width="512"
     height="111.81"
     id="rect6"
     x="0" /></g>
<g
   id="g8"
   transform="matrix(0.04429125,0,0,0.06760242,0,-5.9676709)">
</g>
<g
   id="g10"
   transform="matrix(0.04429125,0,0,0.06760242,0,-5.9676709)">
</g>
<g
   id="g12"
   transform="matrix(0.04429125,0,0,0.06760242,0,-5.9676709)">
</g>
<g
   id="g14"
   transform="matrix(0.04429125,0,0,0.06760242,0,-5.9676709)">
</g>
<g
   id="g16"
   transform="matrix(0.04429125,0,0,0.06760242,0,-5.9676709)">
</g>
<g
   id="g18"
   transform="matrix(0.04429125,0,0,0.06760242,0,-5.9676709)">
</g>
<g
   id="g20"
   transform="matrix(0.04429125,0,0,0.06760242,0,-5.9676709)">
</g>
<g
   id="g22"
   transform="matrix(0.04429125,0,0,0.06760242,0,-5.9676709)">
</g>
<g
   id="g24"
   transform="matrix(0.04429125,0,0,0.06760242,0,-5.9676709)">
</g>
<g
   id="g26"
   transform="matrix(0.04429125,0,0,0.06760242,0,-5.9676709)">
</g>
<g
   id="g28"
   transform="matrix(0.04429125,0,0,0.06760242,0,-5.9676709)">
</g>
<g
   id="g30"
   transform="matrix(0.04429125,0,0,0.06760242,0,-5.9676709)">
</g>
<g
   id="g32"
   transform="matrix(0.04429125,0,0,0.06760242,0,-5.9676709)">
</g>
<g
   id="g34"
   transform="matrix(0.04429125,0,0,0.06760242,0,-5.9676709)">
</g>
<g
   id="g36"
   transform="matrix(0.04429125,0,0,0.06760242,0,-5.9676709)">
</g>
</svg>
