<?xml version="1.0" encoding="UTF-8" standalone="no"?>
<svg
   xmlns:dc="http://purl.org/dc/elements/1.1/"
   xmlns:cc="http://creativecommons.org/ns#"
   xmlns:rdf="http://www.w3.org/1999/02/22-rdf-syntax-ns#"
   xmlns:svg="http://www.w3.org/2000/svg"
   xmlns="http://www.w3.org/2000/svg"
   xmlns:sodipodi="http://sodipodi.sourceforge.net/DTD/sodipodi-0.dtd"
   xmlns:inkscape="http://www.inkscape.org/namespaces/inkscape"
   width="6mm"
   height="4.7624998mm"
   viewBox="0 0 5.9999999 4.7624998"
   version="1.1"
   id="svg988"
   inkscape:version="1.0.1 (3bc2e813f5, 2020-09-07)"
   sodipodi:docname="el-GR.svg">
  <defs
     id="defs982" />
  <sodipodi:namedview
     id="base"
     pagecolor="#ffffff"
     bordercolor="#666666"
     borderopacity="1.0"
     inkscape:pageopacity="0.0"
     inkscape:pageshadow="2"
     inkscape:zoom="36.468402"
     inkscape:cx="11.338583"
     inkscape:cy="11.338585"
     inkscape:document-units="mm"
     inkscape:current-layer="layer1"
     inkscape:document-rotation="0"
     showgrid="false"
     fit-margin-top="0"
     fit-margin-left="0"
     fit-margin-right="0"
     fit-margin-bottom="0"
     inkscape:window-width="1920"
     inkscape:window-height="1017"
     inkscape:window-x="1358"
     inkscape:window-y="-8"
     inkscape:window-maximized="1"
     showborder="true" />
  <metadata
     id="metadata985">
    <rdf:RDF>
      <cc:Work
         rdf:about="">
        <dc:format>image/svg+xml</dc:format>
        <dc:type
           rdf:resource="http://purl.org/dc/dcmitype/StillImage" />
        <dc:title></dc:title>
      </cc:Work>
    </rdf:RDF>
  </metadata>
  <g
     inkscape:label="Layer 1"
     inkscape:groupmode="layer"
     id="layer1"
     transform="translate(-173.68681,-27.837956)">
    <g
       id="g1619"
       transform="matrix(0.09374899,0,0,0.11534075,185.582,16.599016)">
      <g
         id="g30"
         transform="matrix(0.12500135,0,0,0.12500135,-126.88343,86.086197)">
        <path
           d="M 495.484,107 H 121 L 109.19,90.839 H 72.487 L 61.667,107 H 9 V 400.975 H 495.484 L 512,384.459 V 347.756 L 499,329.5 512,311.054 v -36.703 l -13,-19.018 13,-17.684 V 200.946 L 499,184 512,164.243 v -36.702 z"
           fill="#f2f2f6"
           id="path2" />
        <path
           d="M 16.516,355.097 V 156 L 0,164.243 v 36.703 l 7.75,6.804 V 266 L 0,274.351 v 36.703 l 7.667,7.613 v 22 L 0,347.756 v 36.703 l 6.875,7.666 19.277,-7.672 c -6.056,-8.215 -9.636,-18.367 -9.636,-29.356 z"
           fill="#e1e1e6"
           id="path4" />
        <g
           fill="#5055a0"
           id="g18">
          <path
             d="M 181.677,164.243 H 512 v 36.703 H 181.677 Z"
             id="path6" />
          <path
             d="M 7.333,107.355 V 155 l 9.183,9.243 H 72.487 V 90.839 H 16.516 Z"
             id="path8" />
          <path
             d="m 8,260 8.516,14.351 H 72.487 V 200.946 H 16.516 L 8,214.25 Z"
             id="path10" />
          <path
             d="M 181.677,237.649 V 200.946 H 109.19 v 73.405 H 512 v -36.702 z"
             id="path12" />
          <path
             d="M 9.167,320.5 V 338 l 7.349,9.756 H 512 V 311.054 H 16.516 Z"
             id="path14" />
          <path
             d="M 26.145,384.459 32,413.5 h 470 l 10,-8.855 v -20.186 z"
             id="path16" />
        </g>
        <path
           d="M 26.145,384.459 H 0 v 20.186 c 0,9.121 7.395,16.516 16.516,16.516 h 478.968 c 9.121,0 16.516,-7.395 16.516,-16.516 H 66.065 c -16.36,0 -30.897,-7.963 -39.92,-20.186 z"
           fill="#3f3f8f"
           id="path20" />
        <path
           d="m 0,311.053 h 16.516 v 36.703 H 0 Z"
           fill="#3f3f8f"
           id="path22" />
        <path
           d="M 495.484,90.839 H 109.19 v 73.405 h 72.487 V 127.542 H 512 v -20.186 c 0,-9.123 -7.395,-16.517 -16.516,-16.517 z"
           fill="#5055a0"
           id="path24" />
        <path
           d="m 0,200.946 h 16.516 v 73.405 H 0 Z"
           fill="#3f3f8f"
           id="path26" />
        <path
           d="M 16.516,90.839 C 7.395,90.839 0,98.233 0,107.355 v 56.889 h 16.516 z"
           fill="#3f3f8f"
           id="path28" />
      </g>
    </g>
  </g>
</svg>
